<svg width="227" height="51" viewBox="0 0 227 51" fill="none" xmlns="http://www.w3.org/2000/svg">
<g clip-path="url(#clip0_1_8)">
<path d="M28.6662 11.645C31.0037 11.645 32.9162 9.7325 32.9162 7.395C32.9162 5.0575 31.0037 3.145 28.6662 3.145C26.3287 3.145 24.4162 5.0575 24.4162 7.395C24.4162 9.7325 26.3287 11.645 28.6662 11.645ZM21.0163 41.1825L23.1413 31.8325L27.6037 36.0825V48.8325H31.8537V32.895L27.3913 28.645L28.6662 22.27C31.4287 25.4575 35.6788 27.5825 40.3538 27.5825V23.3325C36.3163 23.3325 32.9162 21.2075 31.2162 18.2325L29.0912 14.8325C28.2412 13.5575 26.9662 12.7075 25.4787 12.7075C24.8412 12.7075 24.4162 12.92 23.7787 12.92L12.7287 17.595V27.5825H16.9787V20.3575L20.8037 18.87L17.4037 36.0825L6.99125 33.9575L6.14125 38.2075L21.0163 41.1825Z" fill="#3F3FBC"/>
</g>
<path d="M52.4318 16.794V12.8182H73.321V16.794H65.2287V39H60.5241V16.794H52.4318ZM80.1222 39.3963C78.8778 39.3963 77.7571 39.1747 76.7599 38.7315C75.7713 38.2798 74.9872 37.6151 74.4077 36.7372C73.8366 35.8594 73.5511 34.777 73.5511 33.4901C73.5511 32.3821 73.7557 31.4659 74.1648 30.7415C74.5739 30.017 75.1321 29.4375 75.8395 29.0028C76.5469 28.5682 77.3438 28.2401 78.2301 28.0185C79.125 27.7884 80.0497 27.6222 81.0043 27.5199C82.1548 27.4006 83.0881 27.294 83.804 27.2003C84.5199 27.098 85.0398 26.9446 85.3636 26.7401C85.696 26.527 85.8622 26.1989 85.8622 25.7557V25.679C85.8622 24.7159 85.5767 23.9702 85.0057 23.4418C84.4347 22.9134 83.6122 22.6491 82.5384 22.6491C81.4048 22.6491 80.5057 22.8963 79.8409 23.3906C79.1847 23.8849 78.7415 24.4687 78.5114 25.142L74.1903 24.5284C74.5313 23.3352 75.0938 22.3381 75.8778 21.5369C76.6619 20.7273 77.6207 20.1222 78.7543 19.7216C79.8878 19.3125 81.1406 19.108 82.5128 19.108C83.4588 19.108 84.4006 19.2188 85.3381 19.4403C86.2756 19.6619 87.1321 20.0284 87.9077 20.5398C88.6832 21.0426 89.3054 21.7287 89.7741 22.598C90.2514 23.4673 90.4901 24.554 90.4901 25.858V39H86.0412V36.3026H85.8878C85.6065 36.848 85.2102 37.3594 84.6989 37.8366C84.196 38.3054 83.5611 38.6847 82.794 38.9744C82.0355 39.2557 81.1449 39.3963 80.1222 39.3963ZM81.3239 35.9957C82.2528 35.9957 83.0582 35.8125 83.7401 35.446C84.4219 35.071 84.946 34.5767 85.3125 33.9631C85.6875 33.3494 85.875 32.6804 85.875 31.956V29.642C85.7301 29.7614 85.483 29.8722 85.1335 29.9744C84.7926 30.0767 84.4091 30.1662 83.983 30.2429C83.5568 30.3196 83.1349 30.3878 82.7173 30.4474C82.2997 30.5071 81.9375 30.5582 81.6307 30.6009C80.9403 30.6946 80.3224 30.848 79.777 31.0611C79.2315 31.2741 78.8011 31.5724 78.4858 31.956C78.1705 32.331 78.0128 32.8168 78.0128 33.4134C78.0128 34.2656 78.3239 34.9091 78.946 35.3438C79.5682 35.7784 80.3608 35.9957 81.3239 35.9957ZM95.1435 39V19.3636H99.6307V22.6364H99.8352C100.193 21.5028 100.807 20.6293 101.676 20.0156C102.554 19.3935 103.555 19.0824 104.68 19.0824C104.936 19.0824 105.222 19.0952 105.537 19.1207C105.861 19.1378 106.129 19.1676 106.342 19.2102V23.4673C106.146 23.3991 105.835 23.3395 105.409 23.2884C104.991 23.2287 104.587 23.1989 104.195 23.1989C103.351 23.1989 102.592 23.3821 101.919 23.7486C101.254 24.1065 100.73 24.6051 100.347 25.2443C99.9631 25.8835 99.7713 26.6207 99.7713 27.456V39H95.1435ZM114.716 39.3963C113.472 39.3963 112.351 39.1747 111.354 38.7315C110.365 38.2798 109.581 37.6151 109.001 36.7372C108.43 35.8594 108.145 34.777 108.145 33.4901C108.145 32.3821 108.349 31.4659 108.759 30.7415C109.168 30.017 109.726 29.4375 110.433 29.0028C111.141 28.5682 111.938 28.2401 112.824 28.0185C113.719 27.7884 114.643 27.6222 115.598 27.5199C116.749 27.4006 117.682 27.294 118.398 27.2003C119.114 27.098 119.634 26.9446 119.957 26.7401C120.29 26.527 120.456 26.1989 120.456 25.7557V25.679C120.456 24.7159 120.17 23.9702 119.599 23.4418C119.028 22.9134 118.206 22.6491 117.132 22.6491C115.999 22.6491 115.099 22.8963 114.435 23.3906C113.778 23.8849 113.335 24.4687 113.105 25.142L108.784 24.5284C109.125 23.3352 109.688 22.3381 110.472 21.5369C111.256 20.7273 112.214 20.1222 113.348 19.7216C114.482 19.3125 115.734 19.108 117.107 19.108C118.053 19.108 118.994 19.2188 119.932 19.4403C120.869 19.6619 121.726 20.0284 122.501 20.5398C123.277 21.0426 123.899 21.7287 124.368 22.598C124.845 23.4673 125.084 24.554 125.084 25.858V39H120.635V36.3026H120.482C120.2 36.848 119.804 37.3594 119.293 37.8366C118.79 38.3054 118.155 38.6847 117.388 38.9744C116.629 39.2557 115.739 39.3963 114.716 39.3963ZM115.918 35.9957C116.847 35.9957 117.652 35.8125 118.334 35.446C119.016 35.071 119.54 34.5767 119.906 33.9631C120.281 33.3494 120.469 32.6804 120.469 31.956V29.642C120.324 29.7614 120.077 29.8722 119.727 29.9744C119.386 30.0767 119.003 30.1662 118.577 30.2429C118.151 30.3196 117.729 30.3878 117.311 30.4474C116.893 30.5071 116.531 30.5582 116.224 30.6009C115.534 30.6946 114.916 30.848 114.371 31.0611C113.825 31.2741 113.395 31.5724 113.08 31.956C112.764 32.331 112.607 32.8168 112.607 33.4134C112.607 34.2656 112.918 34.9091 113.54 35.3438C114.162 35.7784 114.955 35.9957 115.918 35.9957ZM139.543 19.3636V22.9432H128.254V19.3636H139.543ZM131.041 14.6591H135.669V33.0938C135.669 33.7159 135.763 34.1932 135.95 34.5256C136.146 34.8494 136.402 35.071 136.717 35.1903C137.033 35.3097 137.382 35.3693 137.766 35.3693C138.055 35.3693 138.32 35.348 138.558 35.3054C138.805 35.2628 138.993 35.2244 139.121 35.1903L139.901 38.8082C139.653 38.8935 139.3 38.9872 138.839 39.0895C138.388 39.1918 137.834 39.2514 137.178 39.2685C136.018 39.3026 134.974 39.1278 134.045 38.7443C133.116 38.3523 132.379 37.7472 131.834 36.929C131.297 36.1108 131.033 35.0881 131.041 33.8608V14.6591ZM149.064 39.3963C147.819 39.3963 146.699 39.1747 145.701 38.7315C144.713 38.2798 143.929 37.6151 143.349 36.7372C142.778 35.8594 142.493 34.777 142.493 33.4901C142.493 32.3821 142.697 31.4659 143.106 30.7415C143.515 30.017 144.074 29.4375 144.781 29.0028C145.488 28.5682 146.285 28.2401 147.172 28.0185C148.066 27.7884 148.991 27.6222 149.946 27.5199C151.096 27.4006 152.029 27.294 152.745 27.2003C153.461 27.098 153.981 26.9446 154.305 26.7401C154.637 26.527 154.804 26.1989 154.804 25.7557V25.679C154.804 24.7159 154.518 23.9702 153.947 23.4418C153.376 22.9134 152.554 22.6491 151.48 22.6491C150.346 22.6491 149.447 22.8963 148.782 23.3906C148.126 23.8849 147.683 24.4687 147.453 25.142L143.132 24.5284C143.473 23.3352 144.035 22.3381 144.819 21.5369C145.603 20.7273 146.562 20.1222 147.696 19.7216C148.829 19.3125 150.082 19.108 151.454 19.108C152.4 19.108 153.342 19.2188 154.279 19.4403C155.217 19.6619 156.074 20.0284 156.849 20.5398C157.625 21.0426 158.247 21.7287 158.716 22.598C159.193 23.4673 159.431 24.554 159.431 25.858V39H154.983V36.3026H154.829C154.548 36.848 154.152 37.3594 153.64 37.8366C153.137 38.3054 152.502 38.6847 151.735 38.9744C150.977 39.2557 150.086 39.3963 149.064 39.3963ZM150.265 35.9957C151.194 35.9957 152 35.8125 152.681 35.446C153.363 35.071 153.887 34.5767 154.254 33.9631C154.629 33.3494 154.816 32.6804 154.816 31.956V29.642C154.672 29.7614 154.424 29.8722 154.075 29.9744C153.734 30.0767 153.35 30.1662 152.924 30.2429C152.498 30.3196 152.076 30.3878 151.659 30.4474C151.241 30.5071 150.879 30.5582 150.572 30.6009C149.882 30.6946 149.264 30.848 148.718 31.0611C148.173 31.2741 147.743 31.5724 147.427 31.956C147.112 32.331 146.954 32.8168 146.954 33.4134C146.954 34.2656 147.265 34.9091 147.887 35.3438C148.51 35.7784 149.302 35.9957 150.265 35.9957ZM168.304 32.8381L168.291 27.2514H169.032L176.089 19.3636H181.497L172.816 29.0284H171.858L168.304 32.8381ZM164.085 39V12.8182H168.713V39H164.085ZM176.409 39L170.017 30.0639L173.136 26.804L181.944 39H176.409ZM184.786 39V12.8182H189.413V22.6108H189.605C189.844 22.1335 190.18 21.6264 190.615 21.0895C191.05 20.544 191.638 20.0795 192.379 19.696C193.121 19.304 194.067 19.108 195.217 19.108C196.734 19.108 198.102 19.4957 199.321 20.2713C200.548 21.0384 201.52 22.1761 202.236 23.6847C202.96 25.1847 203.322 27.0256 203.322 29.2074C203.322 31.3636 202.969 33.196 202.261 34.7045C201.554 36.2131 200.591 37.3636 199.372 38.1562C198.153 38.9489 196.773 39.3452 195.23 39.3452C194.105 39.3452 193.172 39.1577 192.43 38.7827C191.689 38.4077 191.092 37.956 190.641 37.4276C190.197 36.8906 189.852 36.3835 189.605 35.9062H189.337V39H184.786ZM189.324 29.1818C189.324 30.4517 189.503 31.5639 189.861 32.5185C190.227 33.473 190.751 34.2187 191.433 34.7557C192.124 35.2841 192.959 35.5483 193.939 35.5483C194.962 35.5483 195.818 35.2756 196.509 34.7301C197.199 34.1761 197.719 33.4219 198.068 32.4673C198.426 31.5043 198.605 30.4091 198.605 29.1818C198.605 27.9631 198.43 26.8807 198.081 25.9347C197.732 24.9886 197.212 24.2472 196.521 23.7102C195.831 23.1733 194.97 22.9048 193.939 22.9048C192.95 22.9048 192.111 23.1648 191.42 23.6847C190.73 24.2045 190.206 24.9332 189.848 25.8707C189.499 26.8082 189.324 27.9119 189.324 29.1818ZM215.822 39.3835C213.904 39.3835 212.243 38.9616 210.836 38.1179C209.43 37.2741 208.339 36.0937 207.564 34.5767C206.797 33.0597 206.413 31.2869 206.413 29.2585C206.413 27.2301 206.797 25.4531 207.564 23.9276C208.339 22.402 209.43 21.2173 210.836 20.3736C212.243 19.5298 213.904 19.108 215.822 19.108C217.74 19.108 219.402 19.5298 220.808 20.3736C222.214 21.2173 223.301 22.402 224.068 23.9276C224.843 25.4531 225.231 27.2301 225.231 29.2585C225.231 31.2869 224.843 33.0597 224.068 34.5767C223.301 36.0937 222.214 37.2741 220.808 38.1179C219.402 38.9616 217.74 39.3835 215.822 39.3835ZM215.848 35.6761C216.887 35.6761 217.757 35.3906 218.456 34.8196C219.154 34.2401 219.674 33.4645 220.015 32.4929C220.365 31.5213 220.539 30.4389 220.539 29.2457C220.539 28.044 220.365 26.9574 220.015 25.9858C219.674 25.0057 219.154 24.2259 218.456 23.6463C217.757 23.0668 216.887 22.777 215.848 22.777C214.782 22.777 213.896 23.0668 213.189 23.6463C212.49 24.2259 211.966 25.0057 211.616 25.9858C211.275 26.9574 211.105 28.044 211.105 29.2457C211.105 30.4389 211.275 31.5213 211.616 32.4929C211.966 33.4645 212.49 34.2401 213.189 34.8196C213.896 35.3906 214.782 35.6761 215.848 35.6761Z" fill="black"/>
<defs>
<clipPath id="clip0_1_8">
<rect width="51" height="51" fill="white"/>
</clipPath>
</defs>
</svg>
